<mxfile host="app.diagrams.net" modified="2021-02-07T02:20:15.548Z" agent="5.0 (Windows NT 10.0; WOW64) AppleWebKit/537.36 (KHTML, like Gecko) Chrome/75.0.3770.100 Safari/537.36" etag="s658IwCPtGeNXM9Yp3iL" version="14.2.9" type="github">
  <diagram id="3lyuLYBFzt6b4DVkhszL" name="Page-1">
    <mxGraphModel dx="1277" dy="686" grid="1" gridSize="10" guides="1" tooltips="1" connect="1" arrows="1" fold="1" page="1" pageScale="1" pageWidth="827" pageHeight="1169" math="0" shadow="0">
      <root>
        <mxCell id="0" />
        <mxCell id="1" parent="0" />
        <mxCell id="hmUjY6QKmMlUBoakhONz-150" style="edgeStyle=orthogonalEdgeStyle;rounded=0;orthogonalLoop=1;jettySize=auto;html=1;exitX=0.5;exitY=1;exitDx=0;exitDy=0;" parent="1" source="hmUjY6QKmMlUBoakhONz-1" edge="1">
          <mxGeometry relative="1" as="geometry">
            <mxPoint x="472.8333333333335" y="210" as="targetPoint" />
          </mxGeometry>
        </mxCell>
        <mxCell id="hmUjY6QKmMlUBoakhONz-1" value="&lt;font style=&quot;font-size: 24px&quot; face=&quot;Times New Roman&quot;&gt;Input&lt;/font&gt;" style="rounded=1;whiteSpace=wrap;html=1;fillColor=#fff2cc;strokeColor=#d6b656;" parent="1" vertex="1">
          <mxGeometry x="420" y="130" width="106" height="40" as="geometry" />
        </mxCell>
        <mxCell id="hmUjY6QKmMlUBoakhONz-22" value="" style="group" parent="1" vertex="1" connectable="0">
          <mxGeometry x="200" y="220" width="132" height="260" as="geometry" />
        </mxCell>
        <mxCell id="hmUjY6QKmMlUBoakhONz-3" value="&lt;font style=&quot;font-size: 18px&quot; face=&quot;Times New Roman&quot;&gt;FC&lt;/font&gt;" style="rounded=1;whiteSpace=wrap;html=1;fillColor=#fff2cc;strokeColor=#d6b656;" parent="hmUjY6QKmMlUBoakhONz-22" vertex="1">
          <mxGeometry x="26" y="10" width="106" height="40" as="geometry" />
        </mxCell>
        <mxCell id="hmUjY6QKmMlUBoakhONz-4" value="&lt;font style=&quot;font-size: 14px&quot; face=&quot;Times New Roman&quot;&gt;Doubly Residual Structure&lt;/font&gt;" style="rounded=1;whiteSpace=wrap;html=1;fillColor=#fff2cc;strokeColor=#d6b656;" parent="hmUjY6QKmMlUBoakhONz-22" vertex="1">
          <mxGeometry x="26" y="170" width="106" height="90" as="geometry" />
        </mxCell>
        <mxCell id="hmUjY6QKmMlUBoakhONz-8" value="&lt;font style=&quot;font-size: 18px&quot; face=&quot;Times New Roman&quot;&gt;Sigmoid&lt;/font&gt;" style="rounded=1;whiteSpace=wrap;html=1;fillColor=#fff2cc;strokeColor=#d6b656;" parent="hmUjY6QKmMlUBoakhONz-22" vertex="1">
          <mxGeometry x="26" y="70" width="106" height="40" as="geometry" />
        </mxCell>
        <mxCell id="hmUjY6QKmMlUBoakhONz-12" style="edgeStyle=orthogonalEdgeStyle;rounded=0;orthogonalLoop=1;jettySize=auto;html=1;exitX=0.5;exitY=1;exitDx=0;exitDy=0;entryX=0.5;entryY=0;entryDx=0;entryDy=0;" parent="hmUjY6QKmMlUBoakhONz-22" source="hmUjY6QKmMlUBoakhONz-3" target="hmUjY6QKmMlUBoakhONz-8" edge="1">
          <mxGeometry relative="1" as="geometry" />
        </mxCell>
        <mxCell id="hmUjY6QKmMlUBoakhONz-20" style="edgeStyle=orthogonalEdgeStyle;rounded=0;orthogonalLoop=1;jettySize=auto;html=1;exitX=0.5;exitY=1;exitDx=0;exitDy=0;" parent="hmUjY6QKmMlUBoakhONz-22" source="hmUjY6QKmMlUBoakhONz-14" edge="1">
          <mxGeometry relative="1" as="geometry">
            <mxPoint x="79" y="170" as="targetPoint" />
          </mxGeometry>
        </mxCell>
        <mxCell id="hmUjY6QKmMlUBoakhONz-14" value="&lt;font style=&quot;font-size: 24px&quot;&gt;×&lt;/font&gt;" style="ellipse;whiteSpace=wrap;html=1;aspect=fixed;" parent="hmUjY6QKmMlUBoakhONz-22" vertex="1">
          <mxGeometry x="69" y="130" width="20" height="20" as="geometry" />
        </mxCell>
        <mxCell id="hmUjY6QKmMlUBoakhONz-19" style="edgeStyle=orthogonalEdgeStyle;rounded=0;orthogonalLoop=1;jettySize=auto;html=1;exitX=0.5;exitY=1;exitDx=0;exitDy=0;entryX=0.5;entryY=0;entryDx=0;entryDy=0;" parent="hmUjY6QKmMlUBoakhONz-22" source="hmUjY6QKmMlUBoakhONz-8" target="hmUjY6QKmMlUBoakhONz-14" edge="1">
          <mxGeometry relative="1" as="geometry" />
        </mxCell>
        <mxCell id="hmUjY6QKmMlUBoakhONz-21" style="edgeStyle=orthogonalEdgeStyle;rounded=0;orthogonalLoop=1;jettySize=auto;html=1;exitX=0.5;exitY=1;exitDx=0;exitDy=0;" parent="hmUjY6QKmMlUBoakhONz-22" source="hmUjY6QKmMlUBoakhONz-4" target="hmUjY6QKmMlUBoakhONz-4" edge="1">
          <mxGeometry relative="1" as="geometry" />
        </mxCell>
        <mxCell id="hmUjY6QKmMlUBoakhONz-51" value="" style="endArrow=classic;html=1;" parent="1" edge="1">
          <mxGeometry width="50" height="50" relative="1" as="geometry">
            <mxPoint x="660" y="210" as="sourcePoint" />
            <mxPoint x="270" y="360" as="targetPoint" />
            <Array as="points">
              <mxPoint x="210" y="210" />
              <mxPoint x="210" y="280" />
              <mxPoint x="210" y="360" />
            </Array>
          </mxGeometry>
        </mxCell>
        <mxCell id="hmUjY6QKmMlUBoakhONz-64" style="edgeStyle=orthogonalEdgeStyle;rounded=0;orthogonalLoop=1;jettySize=auto;html=1;exitX=0.5;exitY=0;exitDx=0;exitDy=0;entryX=0.5;entryY=0;entryDx=0;entryDy=0;" parent="1" target="hmUjY6QKmMlUBoakhONz-52" edge="1">
          <mxGeometry relative="1" as="geometry">
            <mxPoint x="653" y="210" as="sourcePoint" />
          </mxGeometry>
        </mxCell>
        <mxCell id="hmUjY6QKmMlUBoakhONz-52" value="&lt;font style=&quot;font-size: 18px&quot; face=&quot;Times New Roman&quot;&gt;FC&lt;/font&gt;" style="rounded=1;whiteSpace=wrap;html=1;fillColor=#fff2cc;strokeColor=#d6b656;" parent="1" vertex="1">
          <mxGeometry x="600" y="229.31" width="106" height="40" as="geometry" />
        </mxCell>
        <mxCell id="hmUjY6QKmMlUBoakhONz-121" style="edgeStyle=orthogonalEdgeStyle;rounded=0;orthogonalLoop=1;jettySize=auto;html=1;entryX=0.482;entryY=0.007;entryDx=0;entryDy=0;entryPerimeter=0;" parent="1" source="hmUjY6QKmMlUBoakhONz-53" target="hmUjY6QKmMlUBoakhONz-116" edge="1">
          <mxGeometry relative="1" as="geometry" />
        </mxCell>
        <mxCell id="hmUjY6QKmMlUBoakhONz-123" style="edgeStyle=orthogonalEdgeStyle;rounded=0;orthogonalLoop=1;jettySize=auto;html=1;exitX=0.5;exitY=1;exitDx=0;exitDy=0;entryX=0.513;entryY=0.047;entryDx=0;entryDy=0;entryPerimeter=0;" parent="1" source="hmUjY6QKmMlUBoakhONz-53" target="hmUjY6QKmMlUBoakhONz-118" edge="1">
          <mxGeometry relative="1" as="geometry" />
        </mxCell>
        <mxCell id="hmUjY6QKmMlUBoakhONz-53" value="&lt;font style=&quot;font-size: 14px&quot; face=&quot;Times New Roman&quot;&gt;Doubly Residual Structure&amp;nbsp;&lt;/font&gt;" style="rounded=1;whiteSpace=wrap;html=1;fillColor=#fff2cc;strokeColor=#d6b656;" parent="1" vertex="1">
          <mxGeometry x="600" y="389.31" width="106" height="90" as="geometry" />
        </mxCell>
        <mxCell id="hmUjY6QKmMlUBoakhONz-54" value="&lt;font style=&quot;font-size: 18px&quot; face=&quot;Times New Roman&quot;&gt;Sigmoid&lt;/font&gt;" style="rounded=1;whiteSpace=wrap;html=1;fillColor=#fff2cc;strokeColor=#d6b656;" parent="1" vertex="1">
          <mxGeometry x="600" y="289.31" width="106" height="40" as="geometry" />
        </mxCell>
        <mxCell id="hmUjY6QKmMlUBoakhONz-55" style="edgeStyle=orthogonalEdgeStyle;rounded=0;orthogonalLoop=1;jettySize=auto;html=1;exitX=0.5;exitY=1;exitDx=0;exitDy=0;entryX=0.5;entryY=0;entryDx=0;entryDy=0;" parent="1" source="hmUjY6QKmMlUBoakhONz-52" target="hmUjY6QKmMlUBoakhONz-54" edge="1">
          <mxGeometry relative="1" as="geometry" />
        </mxCell>
        <mxCell id="hmUjY6QKmMlUBoakhONz-56" style="edgeStyle=orthogonalEdgeStyle;rounded=0;orthogonalLoop=1;jettySize=auto;html=1;exitX=0.5;exitY=1;exitDx=0;exitDy=0;" parent="1" source="hmUjY6QKmMlUBoakhONz-57" edge="1">
          <mxGeometry relative="1" as="geometry">
            <mxPoint x="653" y="389.31" as="targetPoint" />
          </mxGeometry>
        </mxCell>
        <mxCell id="hmUjY6QKmMlUBoakhONz-57" value="&lt;font style=&quot;font-size: 24px&quot;&gt;×&lt;/font&gt;" style="ellipse;whiteSpace=wrap;html=1;aspect=fixed;" parent="1" vertex="1">
          <mxGeometry x="643" y="349.31" width="20" height="20" as="geometry" />
        </mxCell>
        <mxCell id="hmUjY6QKmMlUBoakhONz-58" style="edgeStyle=orthogonalEdgeStyle;rounded=0;orthogonalLoop=1;jettySize=auto;html=1;exitX=0.5;exitY=1;exitDx=0;exitDy=0;entryX=0.5;entryY=0;entryDx=0;entryDy=0;" parent="1" source="hmUjY6QKmMlUBoakhONz-54" target="hmUjY6QKmMlUBoakhONz-57" edge="1">
          <mxGeometry relative="1" as="geometry" />
        </mxCell>
        <mxCell id="hmUjY6QKmMlUBoakhONz-59" style="edgeStyle=orthogonalEdgeStyle;rounded=0;orthogonalLoop=1;jettySize=auto;html=1;exitX=0.5;exitY=1;exitDx=0;exitDy=0;" parent="1" source="hmUjY6QKmMlUBoakhONz-53" target="hmUjY6QKmMlUBoakhONz-53" edge="1">
          <mxGeometry relative="1" as="geometry" />
        </mxCell>
        <mxCell id="hmUjY6QKmMlUBoakhONz-60" value="" style="endArrow=classic;html=1;" parent="1" edge="1">
          <mxGeometry width="50" height="50" relative="1" as="geometry">
            <mxPoint x="654" y="210" as="sourcePoint" />
            <mxPoint x="664" y="360" as="targetPoint" />
            <Array as="points">
              <mxPoint x="724" y="210" />
              <mxPoint x="724" y="281" />
              <mxPoint x="724" y="360" />
            </Array>
          </mxGeometry>
        </mxCell>
        <mxCell id="hmUjY6QKmMlUBoakhONz-63" style="edgeStyle=orthogonalEdgeStyle;rounded=0;orthogonalLoop=1;jettySize=auto;html=1;exitX=0.5;exitY=0;exitDx=0;exitDy=0;entryX=0.5;entryY=0;entryDx=0;entryDy=0;" parent="1" target="hmUjY6QKmMlUBoakhONz-3" edge="1">
          <mxGeometry relative="1" as="geometry">
            <mxPoint x="279" y="210" as="sourcePoint" />
          </mxGeometry>
        </mxCell>
        <mxCell id="hmUjY6QKmMlUBoakhONz-68" value="&lt;font style=&quot;font-size: 18px&quot; face=&quot;Times New Roman&quot;&gt;Backcast&amp;nbsp;&lt;/font&gt;" style="text;html=1;align=center;verticalAlign=middle;resizable=0;points=[];autosize=1;" parent="1" vertex="1">
          <mxGeometry x="200" y="525" width="80" height="20" as="geometry" />
        </mxCell>
        <mxCell id="hmUjY6QKmMlUBoakhONz-73" value="" style="group" parent="1" vertex="1" connectable="0">
          <mxGeometry x="335" y="220" width="132" height="260" as="geometry" />
        </mxCell>
        <mxCell id="hmUjY6QKmMlUBoakhONz-74" value="&lt;font style=&quot;font-size: 18px&quot; face=&quot;Times New Roman&quot;&gt;FC&lt;/font&gt;" style="rounded=1;whiteSpace=wrap;html=1;fillColor=#fff2cc;strokeColor=#d6b656;" parent="hmUjY6QKmMlUBoakhONz-73" vertex="1">
          <mxGeometry x="26" y="10" width="106" height="40" as="geometry" />
        </mxCell>
        <mxCell id="hmUjY6QKmMlUBoakhONz-75" value="&lt;font style=&quot;font-size: 14px&quot; face=&quot;Times New Roman&quot;&gt;Doubly Residual Structure&lt;/font&gt;" style="rounded=1;whiteSpace=wrap;html=1;fillColor=#fff2cc;strokeColor=#d6b656;" parent="hmUjY6QKmMlUBoakhONz-73" vertex="1">
          <mxGeometry x="26" y="170" width="106" height="90" as="geometry" />
        </mxCell>
        <mxCell id="hmUjY6QKmMlUBoakhONz-76" value="&lt;font style=&quot;font-size: 18px&quot; face=&quot;Times New Roman&quot;&gt;Sigmoid&lt;/font&gt;" style="rounded=1;whiteSpace=wrap;html=1;fillColor=#fff2cc;strokeColor=#d6b656;" parent="hmUjY6QKmMlUBoakhONz-73" vertex="1">
          <mxGeometry x="26" y="70" width="106" height="40" as="geometry" />
        </mxCell>
        <mxCell id="hmUjY6QKmMlUBoakhONz-77" style="edgeStyle=orthogonalEdgeStyle;rounded=0;orthogonalLoop=1;jettySize=auto;html=1;exitX=0.5;exitY=1;exitDx=0;exitDy=0;entryX=0.5;entryY=0;entryDx=0;entryDy=0;" parent="hmUjY6QKmMlUBoakhONz-73" source="hmUjY6QKmMlUBoakhONz-74" target="hmUjY6QKmMlUBoakhONz-76" edge="1">
          <mxGeometry relative="1" as="geometry" />
        </mxCell>
        <mxCell id="hmUjY6QKmMlUBoakhONz-78" style="edgeStyle=orthogonalEdgeStyle;rounded=0;orthogonalLoop=1;jettySize=auto;html=1;exitX=0.5;exitY=1;exitDx=0;exitDy=0;" parent="hmUjY6QKmMlUBoakhONz-73" source="hmUjY6QKmMlUBoakhONz-79" edge="1">
          <mxGeometry relative="1" as="geometry">
            <mxPoint x="79" y="170" as="targetPoint" />
          </mxGeometry>
        </mxCell>
        <mxCell id="hmUjY6QKmMlUBoakhONz-79" value="&lt;font style=&quot;font-size: 24px&quot;&gt;×&lt;/font&gt;" style="ellipse;whiteSpace=wrap;html=1;aspect=fixed;" parent="hmUjY6QKmMlUBoakhONz-73" vertex="1">
          <mxGeometry x="69" y="130" width="20" height="20" as="geometry" />
        </mxCell>
        <mxCell id="hmUjY6QKmMlUBoakhONz-80" style="edgeStyle=orthogonalEdgeStyle;rounded=0;orthogonalLoop=1;jettySize=auto;html=1;exitX=0.5;exitY=1;exitDx=0;exitDy=0;entryX=0.5;entryY=0;entryDx=0;entryDy=0;" parent="hmUjY6QKmMlUBoakhONz-73" source="hmUjY6QKmMlUBoakhONz-76" target="hmUjY6QKmMlUBoakhONz-79" edge="1">
          <mxGeometry relative="1" as="geometry" />
        </mxCell>
        <mxCell id="hmUjY6QKmMlUBoakhONz-81" style="edgeStyle=orthogonalEdgeStyle;rounded=0;orthogonalLoop=1;jettySize=auto;html=1;exitX=0.5;exitY=1;exitDx=0;exitDy=0;" parent="hmUjY6QKmMlUBoakhONz-73" source="hmUjY6QKmMlUBoakhONz-75" target="hmUjY6QKmMlUBoakhONz-75" edge="1">
          <mxGeometry relative="1" as="geometry" />
        </mxCell>
        <mxCell id="hmUjY6QKmMlUBoakhONz-82" style="edgeStyle=orthogonalEdgeStyle;rounded=0;orthogonalLoop=1;jettySize=auto;html=1;exitX=0.5;exitY=0;exitDx=0;exitDy=0;entryX=0.5;entryY=0;entryDx=0;entryDy=0;" parent="1" target="hmUjY6QKmMlUBoakhONz-74" edge="1">
          <mxGeometry relative="1" as="geometry">
            <mxPoint x="419" y="210" as="sourcePoint" />
          </mxGeometry>
        </mxCell>
        <mxCell id="hmUjY6QKmMlUBoakhONz-84" value="&lt;font style=&quot;font-size: 18px&quot; face=&quot;Times New Roman&quot;&gt;Backcast&lt;/font&gt;" style="text;html=1;align=center;verticalAlign=middle;resizable=0;points=[];autosize=1;" parent="1" vertex="1">
          <mxGeometry x="335" y="525" width="80" height="20" as="geometry" />
        </mxCell>
        <mxCell id="hmUjY6QKmMlUBoakhONz-85" value="" style="endArrow=classic;html=1;entryX=0;entryY=0.5;entryDx=0;entryDy=0;" parent="1" target="hmUjY6QKmMlUBoakhONz-79" edge="1">
          <mxGeometry width="50" height="50" relative="1" as="geometry">
            <mxPoint x="350" y="210" as="sourcePoint" />
            <mxPoint x="480" y="220" as="targetPoint" />
            <Array as="points">
              <mxPoint x="350" y="360" />
            </Array>
          </mxGeometry>
        </mxCell>
        <mxCell id="hmUjY6QKmMlUBoakhONz-92" style="edgeStyle=orthogonalEdgeStyle;rounded=0;orthogonalLoop=1;jettySize=auto;html=1;exitX=0.5;exitY=1;exitDx=0;exitDy=0;" parent="1" source="hmUjY6QKmMlUBoakhONz-75" target="hmUjY6QKmMlUBoakhONz-84" edge="1">
          <mxGeometry relative="1" as="geometry" />
        </mxCell>
        <mxCell id="hmUjY6QKmMlUBoakhONz-101" value="&lt;font style=&quot;font-size: 18px&quot; face=&quot;Times New Roman&quot;&gt;Forecast&amp;nbsp;&lt;/font&gt;" style="text;html=1;align=center;verticalAlign=middle;resizable=0;points=[];autosize=1;" parent="1" vertex="1">
          <mxGeometry x="414" y="525" width="80" height="20" as="geometry" />
        </mxCell>
        <mxCell id="hmUjY6QKmMlUBoakhONz-102" style="edgeStyle=orthogonalEdgeStyle;rounded=0;orthogonalLoop=1;jettySize=auto;html=1;exitX=0.5;exitY=1;exitDx=0;exitDy=0;" parent="1" source="hmUjY6QKmMlUBoakhONz-75" target="hmUjY6QKmMlUBoakhONz-101" edge="1">
          <mxGeometry relative="1" as="geometry" />
        </mxCell>
        <mxCell id="hmUjY6QKmMlUBoakhONz-115" style="edgeStyle=orthogonalEdgeStyle;rounded=0;orthogonalLoop=1;jettySize=auto;html=1;exitX=0.5;exitY=1;exitDx=0;exitDy=0;" parent="1" edge="1">
          <mxGeometry relative="1" as="geometry">
            <mxPoint x="654" y="495" as="sourcePoint" />
            <mxPoint x="654" y="495" as="targetPoint" />
          </mxGeometry>
        </mxCell>
        <mxCell id="hmUjY6QKmMlUBoakhONz-116" value="&lt;font style=&quot;font-size: 18px&quot; face=&quot;Times New Roman&quot;&gt;Backcast&lt;/font&gt;" style="text;html=1;align=center;verticalAlign=middle;resizable=0;points=[];autosize=1;" parent="1" vertex="1">
          <mxGeometry x="572" y="525" width="80" height="20" as="geometry" />
        </mxCell>
        <mxCell id="hmUjY6QKmMlUBoakhONz-118" value="&lt;font style=&quot;font-size: 18px&quot; face=&quot;Times New Roman&quot;&gt;Forecast&amp;nbsp;&lt;/font&gt;" style="text;html=1;align=center;verticalAlign=middle;resizable=0;points=[];autosize=1;" parent="1" vertex="1">
          <mxGeometry x="654" y="525" width="80" height="20" as="geometry" />
        </mxCell>
        <mxCell id="hmUjY6QKmMlUBoakhONz-129" value="&lt;font style=&quot;font-size: 18px&quot; face=&quot;Times New Roman&quot;&gt;Forecast&amp;nbsp;&lt;/font&gt;" style="text;html=1;align=center;verticalAlign=middle;resizable=0;points=[];autosize=1;" parent="1" vertex="1">
          <mxGeometry x="270" y="525" width="80" height="20" as="geometry" />
        </mxCell>
        <mxCell id="hmUjY6QKmMlUBoakhONz-130" style="edgeStyle=orthogonalEdgeStyle;rounded=0;orthogonalLoop=1;jettySize=auto;html=1;exitX=0.5;exitY=1;exitDx=0;exitDy=0;entryX=0.514;entryY=0.067;entryDx=0;entryDy=0;entryPerimeter=0;" parent="1" source="hmUjY6QKmMlUBoakhONz-4" target="hmUjY6QKmMlUBoakhONz-68" edge="1">
          <mxGeometry relative="1" as="geometry" />
        </mxCell>
        <mxCell id="hmUjY6QKmMlUBoakhONz-131" style="edgeStyle=orthogonalEdgeStyle;rounded=0;orthogonalLoop=1;jettySize=auto;html=1;exitX=0.5;exitY=1;exitDx=0;exitDy=0;" parent="1" source="hmUjY6QKmMlUBoakhONz-4" target="hmUjY6QKmMlUBoakhONz-129" edge="1">
          <mxGeometry relative="1" as="geometry" />
        </mxCell>
        <mxCell id="hmUjY6QKmMlUBoakhONz-144" value="" style="endArrow=classic;html=1;exitX=0.475;exitY=1.021;exitDx=0;exitDy=0;exitPerimeter=0;strokeColor=#3333FF;" parent="1" source="hmUjY6QKmMlUBoakhONz-68" edge="1">
          <mxGeometry width="50" height="50" relative="1" as="geometry">
            <mxPoint x="410" y="590" as="sourcePoint" />
            <mxPoint x="340" y="610" as="targetPoint" />
            <Array as="points">
              <mxPoint x="238" y="580" />
              <mxPoint x="340" y="580" />
            </Array>
          </mxGeometry>
        </mxCell>
        <mxCell id="hmUjY6QKmMlUBoakhONz-145" value="" style="endArrow=classic;html=1;strokeColor=#3333FF;" parent="1" source="hmUjY6QKmMlUBoakhONz-84" edge="1">
          <mxGeometry width="50" height="50" relative="1" as="geometry">
            <mxPoint x="410" y="590" as="sourcePoint" />
            <mxPoint x="340" y="610" as="targetPoint" />
            <Array as="points">
              <mxPoint x="375" y="580" />
              <mxPoint x="340" y="580" />
            </Array>
          </mxGeometry>
        </mxCell>
        <mxCell id="hmUjY6QKmMlUBoakhONz-146" value="" style="endArrow=classic;html=1;exitX=0.476;exitY=0.96;exitDx=0;exitDy=0;exitPerimeter=0;strokeColor=#3333FF;" parent="1" source="hmUjY6QKmMlUBoakhONz-116" edge="1">
          <mxGeometry width="50" height="50" relative="1" as="geometry">
            <mxPoint x="610" y="550" as="sourcePoint" />
            <mxPoint x="340" y="610" as="targetPoint" />
            <Array as="points">
              <mxPoint x="610" y="580" />
              <mxPoint x="340" y="580" />
            </Array>
          </mxGeometry>
        </mxCell>
        <mxCell id="hmUjY6QKmMlUBoakhONz-147" value="" style="endArrow=classic;html=1;exitX=0.464;exitY=1.01;exitDx=0;exitDy=0;exitPerimeter=0;strokeColor=#FF3333;" parent="1" source="hmUjY6QKmMlUBoakhONz-129" edge="1">
          <mxGeometry width="50" height="50" relative="1" as="geometry">
            <mxPoint x="300" y="570" as="sourcePoint" />
            <mxPoint x="500" y="610" as="targetPoint" />
            <Array as="points">
              <mxPoint x="307" y="570" />
              <mxPoint x="500" y="570" />
            </Array>
          </mxGeometry>
        </mxCell>
        <mxCell id="hmUjY6QKmMlUBoakhONz-148" value="" style="endArrow=classic;html=1;exitX=0.319;exitY=1.006;exitDx=0;exitDy=0;exitPerimeter=0;strokeColor=#FF3333;" parent="1" source="hmUjY6QKmMlUBoakhONz-101" edge="1">
          <mxGeometry width="50" height="50" relative="1" as="geometry">
            <mxPoint x="410" y="510" as="sourcePoint" />
            <mxPoint x="500" y="610" as="targetPoint" />
            <Array as="points">
              <mxPoint x="440" y="570" />
              <mxPoint x="500" y="570" />
            </Array>
          </mxGeometry>
        </mxCell>
        <mxCell id="hmUjY6QKmMlUBoakhONz-149" value="" style="endArrow=classic;html=1;exitX=0.438;exitY=1;exitDx=0;exitDy=0;exitPerimeter=0;strokeColor=#FF3333;" parent="1" source="hmUjY6QKmMlUBoakhONz-118" edge="1">
          <mxGeometry width="50" height="50" relative="1" as="geometry">
            <mxPoint x="490" y="550" as="sourcePoint" />
            <mxPoint x="500" y="610" as="targetPoint" />
            <Array as="points">
              <mxPoint x="689" y="570" />
              <mxPoint x="500" y="570" />
            </Array>
          </mxGeometry>
        </mxCell>
        <mxCell id="hmUjY6QKmMlUBoakhONz-151" value="&lt;font style=&quot;font-size: 14px&quot; face=&quot;Times New Roman&quot;&gt;The solid blue line represents backcast&lt;br&gt;The solid red line represents forecast&lt;/font&gt;" style="text;html=1;align=center;verticalAlign=middle;resizable=0;points=[];autosize=1;" parent="1" vertex="1">
          <mxGeometry x="484" y="630" width="250" height="30" as="geometry" />
        </mxCell>
        <mxCell id="Oaynz13_a7nm883fY-r6-1" value="&lt;font style=&quot;font-size: 48px&quot;&gt;...&lt;/font&gt;" style="text;html=1;align=center;verticalAlign=middle;resizable=0;points=[];autosize=1;" vertex="1" parent="1">
          <mxGeometry x="500" y="229.31" width="60" height="30" as="geometry" />
        </mxCell>
      </root>
    </mxGraphModel>
  </diagram>
</mxfile>
